<svg version="1.0" xmlns="http://www.w3.org/2000/svg" width="1706.7" height="1584" viewBox="0 0 1280 1188"><path d="M1042 7a767 767 0 0 1 164 369c7 49 7 110 1 157a538 538 0 0 1-179 336 431 431 0 0 1-361 106c-147-30-264-151-255-263 3-44 20-76 41-80h4v12c3 53 20 98 50 136 14 18 39 39 61 52 55 31 129 43 197 32a324 324 0 0 0 245-223c13-37 18-71 18-111a423 423 0 0 0-230-383 526 526 0 0 0-587 77A612 612 0 0 0 7 772a647 647 0 0 0 233 412l-1-2A785 785 0 0 1 81 851c-10-47-12-80-12-130a529 529 0 0 1 348-495 386 386 0 0 1 172-17c82 12 155 48 209 104 49 50 75 110 70 164-4 44-20 74-41 78l-4 1v-12c-2-26-6-46-13-67-22-66-70-115-138-140a323 323 0 0 0-222 6 346 346 0 0 0-194 375 426 426 0 0 0 153 275c63 51 142 85 225 97a533 533 0 0 0 468-157 599 599 0 0 0 176-480A644 644 0 0 0 1042 7z"/></svg>
